<svg width="24" height="25" viewBox="0 0 24 25" fill="none" xmlns="http://www.w3.org/2000/svg">
<path fill-rule="evenodd" clip-rule="evenodd" d="M10.75 0.75C5.22715 0.75 0.75 5.22715 0.75 10.75C0.75 16.2728 5.22715 20.75 10.75 20.75C12.895 20.75 14.8823 20.0746 16.5108 18.925L16.5429 18.9571L21.0429 23.4571L21.75 24.1642L23.1642 22.75L22.4571 22.0429L18.0252 17.6109C19.7145 15.8203 20.75 13.4061 20.75 10.75C20.75 5.22715 16.2728 0.75 10.75 0.75ZM2.75 10.75C2.75 6.33172 6.33172 2.75 10.75 2.75C15.1683 2.75 18.75 6.33172 18.75 10.75C18.75 15.1683 15.1683 18.75 10.75 18.75C6.33172 18.75 2.75 15.1683 2.75 10.75Z" fill="black" fill-opacity="0.62"/>
</svg>
